<?xml version="1.0" standalone="no"?>
<!DOCTYPE svg PUBLIC "-//W3C//DTD SVG 20010904//EN"
 "http://www.w3.org/TR/2001/REC-SVG-20010904/DTD/svg10.dtd">
<svg version="1.0" xmlns="http://www.w3.org/2000/svg"
 width="1024.000000pt" height="1024.000000pt" viewBox="0 0 1024.000000 1024.000000"
 preserveAspectRatio="xMidYMid meet">

<g transform="translate(0.000000,1024.000000) scale(0.100000,-0.100000)"
fill="#000000" stroke="none">
<path d="M4985 9067 c-117 -30 -239 -124 -305 -236 -48 -82 -62 -133 -62 -230
0 -104 28 -174 98 -250 30 -32 54 -63 54 -69 0 -5 -24 -13 -52 -16 -149 -20
-482 -122 -698 -214 -98 -42 -107 -46 -300 -152 -446 -245 -884 -665 -1138
-1090 -205 -344 -300 -601 -397 -1077 -5 -27 -10 -32 -28 -29 -71 15 -106 16
-180 6 -199 -27 -340 -146 -403 -343 -32 -100 -44 -283 -24 -368 15 -66 68
-183 110 -246 29 -42 31 -50 22 -82 -43 -147 -13 -316 77 -442 91 -127 210
-211 366 -258 l70 -22 26 -107 c63 -258 227 -574 426 -822 198 -246 432 -450
689 -602 319 -189 393 -219 725 -303 459 -116 722 -154 1169 -171 184 -7 331
1 645 36 249 28 324 42 605 111 340 84 434 121 739 293 359 202 701 533 924
894 134 216 206 381 248 567 l22 100 103 33 c223 71 366 214 421 422 21 81 22
229 1 285 -15 40 -15 40 18 81 73 88 124 252 124 394 0 184 -41 291 -156 408
-112 113 -235 160 -391 149 -80 -6 -83 -5 -88 16 -128 572 -267 888 -563 1284
-141 187 -223 279 -385 430 -356 333 -757 572 -1207 721 -176 59 -300 86 -568
127 l-43 7 8 41 c15 79 7 237 -17 307 -61 181 -226 347 -398 400 -83 26 -219
34 -287 17z m252 -198 c69 -33 145 -98 187 -158 59 -85 100 -259 82 -352 l-6
-34 -227 0 c-228 0 -228 0 -283 27 -73 36 -134 89 -168 146 -23 40 -27 58 -26
117 1 81 19 129 70 185 99 110 234 135 371 69z m313 -739 c276 -18 587 -88
831 -186 338 -136 511 -234 794 -448 441 -334 818 -860 996 -1391 29 -86 119
-427 119 -452 0 -6 -21 -23 -47 -38 -25 -15 -66 -47 -90 -71 -34 -35 -43 -50
-43 -79 0 -44 29 -75 71 -75 22 0 52 15 99 50 112 83 169 105 275 105 82 0 97
-3 157 -33 75 -37 115 -79 155 -162 50 -103 41 -295 -18 -413 -44 -85 -125
-150 -297 -236 -78 -39 -102 -63 -102 -101 0 -69 125 -87 249 -36 36 14 68 26
73 26 8 0 5 -62 -9 -155 -8 -58 -45 -124 -95 -171 -59 -56 -98 -78 -208 -115
-83 -28 -108 -32 -200 -33 -137 0 -203 15 -326 74 -107 52 -188 116 -239 190
-47 68 -85 79 -167 48 -50 -19 -41 -65 36 -173 68 -94 155 -169 250 -215 106
-50 239 -89 334 -97 l74 -6 -6 -36 c-12 -75 -88 -285 -140 -390 -103 -205
-249 -395 -468 -607 -119 -115 -335 -291 -345 -281 -2 2 8 28 21 58 56 122 67
254 34 414 -16 79 -90 223 -155 300 -108 129 -223 203 -378 246 -216 59 -497
-26 -678 -205 -174 -173 -256 -383 -245 -631 5 -109 44 -246 94 -330 43 -74
152 -178 216 -205 32 -14 58 -28 58 -32 0 -19 -163 -51 -370 -73 -216 -23
-565 -37 -740 -30 -233 9 -599 52 -739 87 l-43 11 68 32 c150 70 260 213 314
406 28 102 28 264 0 374 -85 333 -379 591 -695 611 -265 18 -555 -149 -675
-386 -55 -109 -72 -176 -77 -310 -6 -139 4 -206 42 -288 l24 -53 -76 53 c-83
58 -294 248 -386 348 -139 149 -275 349 -353 515 -37 81 -144 365 -144 384 0
5 44 11 98 14 236 13 469 133 602 308 91 121 89 183 -7 196 -53 7 -75 -6 -124
-75 -23 -31 -56 -70 -73 -85 -36 -33 -207 -117 -286 -142 -83 -25 -288 -31
-374 -11 -206 49 -341 178 -365 351 -6 37 -8 80 -5 95 l6 26 44 -22 c63 -32
177 -51 208 -35 27 15 49 73 44 115 -3 26 -9 30 -78 50 -101 30 -181 71 -228
117 -104 104 -152 318 -108 488 41 155 143 231 310 231 109 0 198 -34 330
-123 70 -48 159 -44 172 8 12 50 -62 140 -167 202 -16 10 -29 25 -29 34 0 57
124 515 180 664 253 675 903 1314 1630 1602 290 115 636 194 900 206 156 7
356 6 490 -3z m-1380 -4680 c100 -38 161 -80 229 -157 103 -116 161 -272 161
-437 0 -225 -100 -385 -293 -469 -182 -79 -331 -78 -493 4 -141 70 -250 198
-303 356 -26 76 -28 213 -6 318 40 188 171 333 368 406 83 31 226 22 337 -21z
m2601 19 c108 -36 150 -61 219 -130 114 -116 164 -245 165 -424 0 -164 -46
-272 -184 -426 -43 -49 -152 -112 -251 -145 -112 -36 -275 -19 -406 43 -87 41
-195 151 -223 228 -71 188 -64 370 21 545 45 93 181 228 273 272 90 42 153 56
248 57 54 1 96 -5 138 -20z"/>
<path d="M3845 7194 c-142 -29 -260 -78 -300 -125 -34 -42 -34 -97 1 -138 39
-46 89 -43 172 11 88 57 144 71 219 53 87 -21 120 -19 148 10 18 17 25 35 25
61 0 87 -138 153 -265 128z"/>
<path d="M6615 7175 c-51 -18 -95 -66 -95 -104 0 -17 11 -43 26 -60 30 -36 54
-39 141 -16 84 22 143 8 229 -56 77 -56 108 -61 153 -23 54 45 50 114 -11 171
-85 80 -329 128 -443 88z"/>
<path d="M3660 6670 c-107 -28 -191 -74 -281 -152 -77 -67 -99 -79 -99 -56 0
21 -49 76 -75 82 -33 8 -89 -16 -110 -48 -30 -45 -14 -91 51 -157 46 -46 56
-62 51 -81 -3 -12 -15 -59 -26 -103 -62 -243 10 -489 200 -682 150 -152 403
-212 625 -147 127 36 197 77 290 169 66 64 89 96 122 165 62 129 77 194 77
345 0 109 -4 142 -23 205 -73 230 -226 384 -452 457 -25 7 -97 16 -160 19 -94
3 -128 1 -190 -16z m314 -214 c81 -48 119 -114 118 -207 -1 -200 -244 -302
-397 -167 -82 72 -102 144 -68 243 21 63 94 138 149 153 58 16 150 6 198 -22z
m200 -587 c67 -52 67 -130 1 -188 -43 -37 -83 -40 -132 -10 -81 50 -85 162 -8
207 34 19 109 15 139 -9z"/>
<path d="M6665 6680 c-187 -38 -371 -182 -459 -361 -62 -125 -79 -211 -73
-359 4 -89 10 -131 30 -187 81 -230 211 -370 402 -434 124 -41 208 -52 303
-39 202 27 337 105 459 262 135 176 178 427 111 654 l-24 81 39 28 c97 69 105
188 13 211 -29 7 -81 -18 -118 -58 l-27 -29 -78 65 c-94 79 -213 141 -308 161
-75 16 -205 18 -270 5z m205 -215 c40 -21 106 -97 120 -140 24 -74 -5 -181
-67 -247 -14 -15 -48 -36 -76 -48 -155 -67 -341 69 -324 236 15 144 125 232
271 218 27 -3 61 -11 76 -19z m251 -614 c34 -33 39 -45 39 -83 0 -115 -131
-162 -212 -76 -76 82 -21 197 96 198 31 0 45 -7 77 -39z"/>
<path d="M5161 6139 c-70 -14 -140 -39 -222 -80 -421 -210 -637 -747 -449
-1119 40 -79 137 -207 200 -263 150 -135 397 -227 609 -227 244 0 466 82 622
228 191 179 261 337 261 587 0 150 -21 237 -92 374 -123 240 -366 440 -602
496 -69 16 -254 19 -327 4z m294 -174 c132 -34 297 -138 377 -238 58 -74 145
-257 164 -347 20 -97 14 -222 -16 -310 -32 -94 -116 -215 -192 -277 -148 -120
-307 -170 -509 -160 -145 7 -220 26 -331 83 -219 114 -342 308 -342 544 0 114
16 174 85 315 57 118 118 198 197 260 68 54 180 110 260 129 78 19 234 20 307
1z"/>
<path d="M4711 5426 c-51 -54 -33 -137 43 -202 56 -49 204 -120 301 -145 180
-47 447 -33 617 33 120 46 231 135 263 212 22 51 13 83 -29 103 -52 24 -93 11
-167 -53 -118 -102 -227 -138 -414 -137 -215 1 -337 40 -451 144 -86 78 -122
88 -163 45z"/>
</g>
</svg>
